<svg id="visual" viewBox="0 0 960 540" width="960" height="540" xmlns="http://www.w3.org/2000/svg" xmlns:xlink="http://www.w3.org/1999/xlink" version="1.1"><path d="M0 70L32 81.8C64 93.7 128 117.3 192 130.3C256 143.3 320 145.7 384 128C448 110.3 512 72.7 576 57.8C640 43 704 51 768 73.2C832 95.3 896 131.7 928 149.8L960 168L960 0L928 0C896 0 832 0 768 0C704 0 640 0 576 0C512 0 448 0 384 0C320 0 256 0 192 0C128 0 64 0 32 0L0 0Z" fill="#F7770F" stroke-linecap="round" stroke-linejoin="miter"></path></svg>